<svg xmlns="http://www.w3.org/2000/svg" viewBox="0 0 64 64">
  <rect width="64" height="64" rx="14" fill="#111827"></rect>
  <rect x="14" y="14" width="36" height="28" rx="3" fill="#ffffff"></rect>
  <rect x="18" y="19" width="18" height="4" rx="1" fill="#111827"></rect>
  <rect x="18" y="27" width="28" height="3" rx="1.5" fill="#111827"></rect>
  <rect x="18" y="34" width="22" height="3" rx="1.5" fill="#111827"></rect>
  <circle cx="46" cy="46" r="10" fill="#ef4444"></circle>
  <path d="M46 40c3.2 0 5.5 1.9 5.5 4.7 0 2.2-1.2 3.5-3.3 4.5-.9.4-1.2.8-1.2 1.8v.5h-3.1v-.8c0-2 .8-3.1 2.6-4 1.3-.7 1.8-1.2 1.8-2.1 0-1-1-1.7-2.4-1.7-1.5 0-2.7.8-3.5 2l-2.3-1.8c1.2-2 3.2-3.1 5.9-3.1z" fill="#ffffff"></path>
  <circle cx="45.5" cy="55" r="1.8" fill="#ffffff"></circle>
</svg>